<svg width="60" height="60" viewBox="0 0 60 60" fill="none" xmlns="http://www.w3.org/2000/svg">
<path d="M25.6157 49.9043L28.9793 59.0241C29.1057 59.3674 29.4326 59.5951 29.7981 59.5951C30.1635 59.5951 30.4904 59.3674 30.6169 59.0241L33.9804 49.9043C36.703 42.5214 42.5229 36.7015 49.9054 33.9794L59.0251 30.6158C59.3679 30.4894 59.5956 30.1625 59.5956 29.797C59.5956 29.4316 59.3679 29.1047 59.0251 28.9783L49.9049 25.6147C42.5224 22.8921 36.7025 17.0727 33.9804 9.69026L30.6169 0.570529C30.4904 0.227698 30.1635 0 29.7981 0C29.4326 0 29.1057 0.227698 28.9793 0.570529L25.6157 9.69026C22.8931 17.0727 17.0737 22.8921 9.69077 25.6147L0.570529 28.9783C0.227698 29.1047 0 29.4316 0 29.797C0 30.1625 0.227698 30.4894 0.570529 30.6158L9.69026 33.9794C17.0732 36.7015 22.8931 42.5209 25.6157 49.9043Z" fill="url(#paint0_linear_4303_5256)"/>
<defs>
<linearGradient id="paint0_linear_4303_5256" x1="50.371" y1="5.65389" x2="10.5368" y2="59.6229" gradientUnits="userSpaceOnUse">
<stop stop-color="white"/>
<stop offset="1" stop-color="white" stop-opacity="0"/>
</linearGradient>
</defs>
</svg>
