<svg width="35" height="35" viewBox="0 0 35 35" fill="none" xmlns="http://www.w3.org/2000/svg">
<path d="M34.5508 16.9622L29.2119 14.9934C24.8905 13.3998 21.4842 9.99351 19.8912 5.67204L17.9218 0.334471C17.8482 0.133281 17.6565 0 17.4426 0C17.2287 0 17.0371 0.133281 16.9635 0.333836L14.9947 5.67077C13.4011 9.99224 9.99414 13.3991 5.67268 14.9928L0.333837 16.9615C0.133281 17.0352 0 17.2268 0 17.4407C0 17.6546 0.133281 17.8463 0.333837 17.9199L5.67205 19.8893C9.99415 21.4829 13.4011 24.8898 14.9947 29.2119L16.9635 34.5495C17.0371 34.7501 17.2287 34.8833 17.4426 34.8833C17.6565 34.8833 17.8482 34.7501 17.9218 34.5495L19.8912 29.2113C21.4848 24.8892 24.8911 21.4829 29.2132 19.8899L34.5514 17.9205C34.752 17.8469 34.8852 17.6552 34.8852 17.4414C34.8852 17.2275 34.752 17.0358 34.5508 16.9622Z" fill="#919EAB"/>
</svg>
